<?xml version="1.0" encoding="UTF-8" standalone="yes"?><svg xmlns:dc="http://purl.org/dc/elements/1.1/" xmlns:cc="http://creativecommons.org/ns#" xmlns:rdf="http://www.w3.org/1999/02/22-rdf-syntax-ns#" xmlns:svg="http://www.w3.org/2000/svg" xmlns="http://www.w3.org/2000/svg" xmlns:xlink="http://www.w3.org/1999/xlink" viewBox="0 0 122.88 122.88" height="122.88" width="122.88" id="svg3853" version="1.1" style="zoom: 1;"><metadata id="metadata3859"><rdf:RDF><cc:Work rdf:about=""><dc:format>image/svg+xml</dc:format><dc:type rdf:resource="http://purl.org/dc/dcmitype/StillImage"></dc:type><dc:title></dc:title></cc:Work></rdf:RDF></metadata><defs id="defs3857"></defs><image x="0" style="image-rendering:optimizeQuality" height="128px" id="image3861" y="0" width="128px" xlink:href="file:///Users/lukasz/Documents/Icons/others/Git-Icon.png" xlink:role="file:///Users/lukasz/Documents/Icons/others/Git-Icon.png" preserveAspectRatio="none" visibility="visible"></image><g id="layer1"><g transform="matrix(1.5320864,0,0,1.5943639,74.313896,74.042258)" id="Layer_1"><path d="M 19,7 H 11 L 11.621,4.515 C 11.844,3.625 12.644,3 13.562,3 h 2.877 c 0.918,0 1.718,0.625 1.94,1.515 z" id="path3933"></path><path d="M 27,5 H 3 C 1.895,5 1,5.895 1,7 v 5 H 6.277 C 6.624,11.405 7.262,11 8,11 c 0.738,0 1.376,0.405 1.723,1 h 10.555 c 0.346,-0.595 0.984,-1 1.723,-1 0.739,0 1.376,0.405 1.723,1 H 29 V 7 C 29,5.895 28.105,5 27,5 Z" id="path3935"></path><path d="M 23.723,14 C 23.377,14.595 22.739,15 22,15 21.261,15 20.624,14.595 20.277,14 H 9.723 C 9.376,14.595 8.738,15 8,15 7.262,15 6.624,14.595 6.277,14 H 2 v 9 c 0,1.105 0.895,2 2,2 h 22 c 1.105,0 2,-0.895 2,-2 v -9 z" id="path3937"></path></g></g></svg>